<svg width="167" height="105" viewBox="0 0 167 105" fill="none" xmlns="http://www.w3.org/2000/svg">
<g clip-path="url(#clip0_840_1515)">
<path d="M73.0465 36.304C73.0465 41.0827 71.8945 45.5627 69.5905 49.744C67.3718 53.9253 63.8305 57.296 58.9665 59.856C54.1878 62.416 48.1292 63.696 40.7905 63.696H25.8145V98H7.8945V8.656H40.7905C47.7025 8.656 53.5905 9.85066 58.4545 12.24C63.3185 14.6293 66.9452 17.9147 69.3345 22.096C71.8092 26.2773 73.0465 31.0133 73.0465 36.304ZM40.0225 49.232C44.9718 49.232 48.6412 48.1227 51.0305 45.904C53.4198 43.6 54.6145 40.4 54.6145 36.304C54.6145 27.6 49.7505 23.248 40.0225 23.248H25.8145V49.232H40.0225Z" fill="#007D72"/>
<path d="M99.292 66L92.524 57.504V66H87.484V39.36H92.524V54.516L99.22 46.056H105.772L96.988 56.064L105.844 66H99.292ZM127.047 55.596C127.047 56.316 126.999 56.964 126.903 57.54H112.323C112.443 58.98 112.947 60.108 113.835 60.924C114.723 61.74 115.815 62.148 117.111 62.148C118.983 62.148 120.315 61.344 121.107 59.736H126.543C125.967 61.656 124.863 63.24 123.231 64.488C121.599 65.712 119.595 66.324 117.219 66.324C115.299 66.324 113.571 65.904 112.035 65.064C110.523 64.2 109.335 62.988 108.471 61.428C107.631 59.868 107.211 58.068 107.211 56.028C107.211 53.964 107.631 52.152 108.471 50.592C109.311 49.032 110.487 47.832 111.999 46.992C113.511 46.152 115.251 45.732 117.219 45.732C119.115 45.732 120.807 46.14 122.295 46.956C123.807 47.772 124.971 48.936 125.787 50.448C126.627 51.936 127.047 53.652 127.047 55.596ZM121.827 54.156C121.803 52.86 121.335 51.828 120.423 51.06C119.511 50.268 118.395 49.872 117.075 49.872C115.827 49.872 114.771 50.256 113.907 51.024C113.067 51.768 112.551 52.812 112.359 54.156H121.827ZM136.594 50.196V59.844C136.594 60.516 136.75 61.008 137.062 61.32C137.398 61.608 137.95 61.752 138.718 61.752H141.058V66H137.89C133.642 66 131.518 63.936 131.518 59.808V50.196H129.142V46.056H131.518V41.124H136.594V46.056H141.058V50.196H136.594Z" fill="black"/>
<path d="M84.024 87.596C84.024 88.316 83.976 88.964 83.88 89.54H69.3C69.42 90.98 69.924 92.108 70.812 92.924C71.7 93.74 72.792 94.148 74.088 94.148C75.96 94.148 77.292 93.344 78.084 91.736H83.52C82.944 93.656 81.84 95.24 80.208 96.488C78.576 97.712 76.572 98.324 74.196 98.324C72.276 98.324 70.548 97.904 69.012 97.064C67.5 96.2 66.312 94.988 65.448 93.428C64.608 91.868 64.188 90.068 64.188 88.028C64.188 85.964 64.608 84.152 65.448 82.592C66.288 81.032 67.464 79.832 68.976 78.992C70.488 78.152 72.228 77.732 74.196 77.732C76.092 77.732 77.784 78.14 79.272 78.956C80.784 79.772 81.948 80.936 82.764 82.448C83.604 83.936 84.024 85.652 84.024 87.596ZM78.804 86.156C78.78 84.86 78.312 83.828 77.4 83.06C76.488 82.268 75.372 81.872 74.052 81.872C72.804 81.872 71.748 82.256 70.884 83.024C70.044 83.768 69.528 84.812 69.336 86.156H78.804Z" fill="black"/>
<path d="M99.5108 98L92.7428 89.504V98H87.7028V71.36H92.7428V86.516L99.4388 78.056H105.991L97.2068 88.064L106.063 98H99.5108ZM107.43 87.956C107.43 85.94 107.826 84.152 108.618 82.592C109.434 81.032 110.526 79.832 111.894 78.992C113.286 78.152 114.834 77.732 116.538 77.732C118.026 77.732 119.322 78.032 120.426 78.632C121.554 79.232 122.454 79.988 123.126 80.9V78.056H128.202V98H123.126V95.084C122.478 96.02 121.578 96.8 120.426 97.424C119.298 98.024 117.99 98.324 116.502 98.324C114.822 98.324 113.286 97.892 111.894 97.028C110.526 96.164 109.434 94.952 108.618 93.392C107.826 91.808 107.43 89.996 107.43 87.956ZM123.126 88.028C123.126 86.804 122.886 85.76 122.406 84.896C121.926 84.008 121.278 83.336 120.462 82.88C119.646 82.4 118.77 82.16 117.834 82.16C116.898 82.16 116.034 82.388 115.242 82.844C114.45 83.3 113.802 83.972 113.298 84.86C112.818 85.724 112.578 86.756 112.578 87.956C112.578 89.156 112.818 90.212 113.298 91.124C113.802 92.012 114.45 92.696 115.242 93.176C116.058 93.656 116.922 93.896 117.834 93.896C118.77 93.896 119.646 93.668 120.462 93.212C121.278 92.732 121.926 92.06 122.406 91.196C122.886 90.308 123.126 89.252 123.126 88.028ZM138.993 82.196V91.844C138.993 92.516 139.149 93.008 139.461 93.32C139.797 93.608 140.349 93.752 141.117 93.752H143.457V98H140.289C136.041 98 133.917 95.936 133.917 91.808V82.196H131.541V78.056H133.917V73.124H138.993V78.056H143.457V82.196H138.993Z" fill="#007D72"/>
<path d="M34 97.5V69.5H40.5L51.5 88V69.5H57.5V97.5H51.5L40.5 79V97.5H34Z" fill="black" stroke="black"/>
<path d="M87 34C87 32.3431 88.3431 31 90 31C91.6569 31 93 32.3431 93 34V98H87V34Z" fill="#007D72"/>
</g>
<defs>
<clipPath id="clip0_840_1515">
<rect width="167" height="105" fill="white"/>
</clipPath>
</defs>
</svg>
